<?xml version="1.0" encoding="UTF-8"?>
<svg id="Artwork" width="65" height="66" xmlns="http://www.w3.org/2000/svg" version="1.1" viewBox="0 0 360 360">
  <!-- Generator: Adobe Illustrator 29.3.1, SVG Export Plug-In . SVG Version: 2.1.0 Build 151)  -->
  <defs>
    <style>
      .st0 {
        font-family: EmbarcaderoMVBPro-Ital, 'Embarcadero MVB Pro';
        font-size: 20px;
        letter-spacing: 0em;
      }

      .st0, .st1 {
        font-style: italic;
      }

      .st2 {
        fill: #92bbde;
      }

      .st3 {
        fill: #4d4d4d;
        font-family: Adelle-Regular, Adelle;
        font-size: 11px;
        letter-spacing: 0em;
      }

      .st4 {
        fill: #fff;
      }

      .st5, .st1 {
        fill: #478dc9;
      }

      .st1 {
        font-family: Adelle-SemiboldItalic, Adelle;
        font-size: 20.1px;
        font-weight: 600;
        letter-spacing: 0em;
      }

      .st6 {
        fill: #b5d0e7;
      }

      .st7 {
        fill: #dae6f3;
      }

      .st8 {
        font-family: EmbarcaderoMVBPro-Bold, 'Embarcadero MVB Pro';
        font-size: 19.5px;
        font-weight: 700;
        letter-spacing: 0em;
      }

      .st9 {
        fill: #58595b;
      }

      .st10 {
        fill: #6fa2d2;
      }

      .st11 {
        fill: #00a289;
      }
    </style>
  </defs>
  <g>
    <path class="st10" d="M96.8,145.6L13.7,111.1C4.9,132.3,0,155.6,0,180h90c0-12.2,2.4-23.8,6.8-34.4Z"/>
    <path class="st6" d="M145.6,96.8L111.1,13.7c-22,9.1-41.8,22.5-58.4,39l63.6,63.6c8.3-8.3,18.2-15,29.2-19.5Z"/>
    <path class="st2" d="M116.4,116.4l-63.6-63.6c-16.6,16.6-29.9,36.4-39,58.4l83.2,34.4c4.6-11,11.2-20.9,19.5-29.2Z"/>
    <path class="st5" d="M270,180h0c0,12.2-2.4,23.8-6.8,34.4-4.6,11-11.2,20.9-19.5,29.2-8.3,8.3-18.2,15-29.2,19.5-10.6,4.4-22.2,6.8-34.4,6.8s-23.8-2.4-34.4-6.8c-11-4.6-20.9-11.2-29.2-19.5-8.3-8.3-15-18.2-19.5-29.2-4.4-10.6-6.8-22.2-6.8-34.4h0s-90,0-90,0h0c0,24.4,4.9,47.7,13.7,68.9,9.1,22,22.5,41.8,39,58.4,16.6,16.6,36.4,29.9,58.4,39,21.2,8.8,44.5,13.7,68.9,13.7s47.7-4.9,68.9-13.7c22-9.1,41.8-22.5,58.4-39,16.6-16.6,29.9-36.4,39-58.4,8.8-21.2,13.7-44.5,13.7-68.9h0s-90,0-90,0Z"/>
    <path class="st2" d="M263.2,145.6l83.2-34.4c-9.1-22-22.5-41.8-39-58.4l-63.6,63.6c8.3,8.3,15,18.2,19.5,29.2Z"/>
    <path class="st10" d="M270,180h90c0-24.4-4.9-47.7-13.7-68.9l-83.2,34.4c4.4,10.6,6.8,22.2,6.8,34.4Z"/>
    <path class="st6" d="M243.6,116.4l63.6-63.6c-16.6-16.6-36.4-29.9-58.4-39l-34.4,83.2c11,4.6,20.9,11.2,29.2,19.5Z"/>
    <path class="st7" d="M180,0C155.6,0,132.3,4.9,111.1,13.7l34.4,83.2c10.6-4.4,22.2-6.8,34.4-6.8s23.8,2.4,34.4,6.8L248.9,13.7C227.7,4.9,204.4,0,180,0Z"/>
  </g>
  <path class="st4" d="M324.6,120.1c-7.9-19.1-19.5-36.4-33.9-50.8-14.4-14.4-31.6-26-50.8-33.9h0c-18.5-7.7-38.7-11.9-59.9-11.9s-41.4,4.2-59.9,11.9h0c-19.1,7.9-36.4,19.5-50.8,33.9-14.4,14.4-26,31.6-33.9,50.8-7.7,18.5-11.9,38.7-11.9,59.9h0c0,21.2,4.2,41.4,11.9,59.9,7.9,19.1,19.5,36.4,33.9,50.8,14.4,14.4,31.6,26,50.8,33.9,18.5,7.7,38.7,11.9,59.9,11.9s41.4-4.2,59.9-11.9c19.1-7.9,36.4-19.5,50.8-33.9,14.4-14.4,26-31.6,33.9-50.8,7.7-18.5,11.9-38.7,11.9-59.9h0s0,0,0,0c0-21.2-4.2-41.4-11.9-59.9Z"/>
  <text class="st9" transform="translate(108.4 96.4)"><tspan class="st8"><tspan x="0" y="0">8ank of america</tspan></tspan><tspan class="st0"><tspan x="-19.3" y="24">SafeBalance Banking</tspan></tspan></text>
  <g>
    <g>
      <path class="st9" d="M87.8,192.3h-23.7c-.5,0-.6,0-.6-.9v-41c0-.5.2-.6.8-.6h21.9c7.7,0,12.3,4.1,12.3,11.2s-2.6,8-7.5,9.4c5.4.6,8.7,5.5,8.7,10.4s-4.5,11.5-12,11.5ZM83.2,158.6h-8.4v8h8.4c2.6,0,4-1.5,4-4s-1.4-4-4-4ZM83.8,174.3h-9v9.2h9c2.6,0,4.3-1.6,4.3-4.6s-1.8-4.6-4.3-4.6Z"/>
      <path class="st9" d="M130.9,192.3h-8.9c-.4,0-.6-.3-.6-.6v-3.9c-1.1,3.3-5,5-8.8,5-8.4,0-14.8-6-14.8-16.3s6.6-16.2,14.6-16.2,7.5,2.5,8.5,5v-3.8c0-.6.1-.8.5-.8h9.6c.3,0,.4.3.4.6v30.2c0,.7-.2.9-.5.9ZM114.6,170c-3.9,0-6.4,2.8-6.4,6.7s2.9,6.5,6.4,6.5,6.3-2.6,6.3-6.6-2.8-6.6-6.3-6.6Z"/>
      <path class="st9" d="M162.8,192.3h-9.5c-.4,0-.6,0-.6-.7v-18.7c0-2.8-1.8-4.1-3.9-4.1s-3.8,1.3-4.6,3v19.8c0,.6,0,.7-.4.7h-9.7c-.4,0-.5,0-.5-.9v-30q0-.8.4-.8h9.2c.4,0,.7.4.7,1v4.1c1.3-3.7,5-6,9.8-6s9.7,3.6,9.7,10.3v21.3c0,.9-.1.9-.6.9Z"/>
      <path class="st9" d="M197.3,192.3h-11.4c-.4,0-.6-.2-1.1-.9l-5.3-9.3-3.4,4.3v5.2c0,.6-.1.7-.5.7h-9.6c-.4,0-.5,0-.5-.9v-41.7c0-.8,0-.8.4-.8h9.6c.4,0,.6,0,.6.8v23.6s5.8-8.1,8.6-12.2c.1-.3.2-.5.8-.5h10.8c.8,0,.4.8.2,1.1-3.1,3.8-10,12.3-10,12.3,0,0,7.6,11.7,11.4,17.5.3.6.1.8-.6.8Z"/>
    </g>
    <path class="st5" d="M295.6,192.3h-9.5c-.4,0-.6,0-.6-.7v-18.7c0-2.8-1.8-4.1-3.9-4.1s-3.8,1.3-4.6,3v19.8c0,.6,0,.7-.4.7h-9.7c-.4,0-.5,0-.5-.9v-30q0-.8.4-.8h9.2c.4,0,.7.4.7,1v4.1c1.3-3.7,5-6,9.8-6s9.7,3.6,9.7,10.3v21.3c0,.9-.1.9-.6.9Z"/>
    <g>
      <path class="st10" d="M215.1,167.4l-16.5-6.9c-1.8,4.2-2.7,8.8-2.7,13.7h17.9c0-2.4.5-4.7,1.4-6.9Z"/>
      <path class="st6" d="M224.7,157.7l-6.9-16.5c-4.4,1.8-8.3,4.5-11.6,7.8l12.7,12.7c1.6-1.6,3.6-3,5.8-3.9Z"/>
      <path class="st2" d="M218.9,161.6l-12.7-12.7c-3.3,3.3-6,7.2-7.8,11.6l16.5,6.9c.9-2.2,2.2-4.2,3.9-5.8Z"/>
      <path class="st5" d="M249.5,174.2h0c0,2.4-.5,4.7-1.4,6.9-.9,2.2-2.2,4.2-3.9,5.8-1.6,1.6-3.6,3-5.8,3.9-2.1.9-4.4,1.4-6.9,1.4s-4.7-.5-6.9-1.4c-2.2-.9-4.2-2.2-5.8-3.9-1.6-1.6-3-3.6-3.9-5.8-.9-2.1-1.4-4.4-1.4-6.9h0s-17.9,0-17.9,0h0c0,4.9,1,9.5,2.7,13.7,1.8,4.4,4.5,8.3,7.8,11.6,3.3,3.3,7.2,6,11.6,7.8,4.2,1.8,8.8,2.7,13.7,2.7s9.5-1,13.7-2.7c4.4-1.8,8.3-4.5,11.6-7.8,3.3-3.3,6-7.2,7.8-11.6,1.8-4.2,2.7-8.8,2.7-13.7h0s-17.9,0-17.9,0Z"/>
      <path class="st2" d="M248.1,167.4l16.5-6.9c-1.8-4.4-4.5-8.3-7.8-11.6l-12.7,12.7c1.6,1.6,3,3.6,3.9,5.8Z"/>
      <path class="st10" d="M249.5,174.2h17.9c0-4.9-1-9.5-2.7-13.7l-16.5,6.9c.9,2.1,1.4,4.4,1.4,6.9Z"/>
      <path class="st6" d="M244.3,161.6l12.7-12.7c-3.3-3.3-7.2-6-11.6-7.8l-6.9,16.5c2.2.9,4.2,2.2,5.8,3.9Z"/>
      <path class="st7" d="M231.6,138.4c-4.9,0-9.5,1-13.7,2.7l6.9,16.5c2.1-.9,4.4-1.4,6.9-1.4s4.7.5,6.9,1.4l6.9-16.5c-4.2-1.8-8.8-2.7-13.7-2.7Z"/>
    </g>
  </g>
  <g>
    <g>
      <path class="st9" d="M138.4,318.5c-2.9,0-5.7-.6-8.4-1.8-5-2.2-8.8-6.3-10.7-11.4-1.9-5.1-1.8-10.7.5-15.7,2.2-5,6.3-8.8,11.4-10.7l3.6,9.4c-2.6,1-4.7,2.9-5.8,5.5-1.1,2.5-1.2,5.4-.2,8,1,2.6,2.9,4.7,5.5,5.8,2.5,1.1,5.4,1.2,8,.2,2.6-1,4.7-2.9,5.8-5.5,1.1-2.5,1.2-5.4.2-8-1-2.7-3-4.8-5.6-5.9l4-9.2c5.1,2.2,9.1,6.3,11.1,11.6,1.9,5.1,1.8,10.7-.5,15.7-2.2,5-6.3,8.8-11.4,10.7-2.4.9-4.8,1.3-7.3,1.3Z"/>
      <path class="st11" d="M142.5,288.5c-2.5-1.1-5.3-1.1-7.8-.2l-3.6-9.4c5-1.9,10.4-1.8,15.4.3l-4,9.2Z"/>
    </g>
    <g>
      <path class="st11" d="M167.5,286.7c.6,0,1-.3,1.3-.6l.2-.2,1,.5c0,0,0,.1,0,.2h0c-.8.8-1.3,1.2-2.4,1.2s-1.5-.3-2-.7c-.6-.6-.8-1.3-.8-2.5s.2-1.9.8-2.4c.4-.5,1.1-.8,2.1-.8s1.9.6,2.3,1l.2.2c0,0,0,0,0,.2l-1,.5-.3-.3c-.3-.2-.6-.6-1.2-.6s-.9.2-1.2.5c-.3.3-.4.6-.4,1.6s.2,1.4.5,1.7c.3.3.6.4,1.2.4Z"/>
      <path class="st11" d="M172.3,281.2v1h-1.2v-1h1.2ZM172.2,283.1v4.6h-1.2v-4.6h1.2Z"/>
      <path class="st11" d="M175.2,287.8c-.9,0-1.4-.6-1.4-1.3v-2.4h0c0-.1-.2-.1-.2-.1h-.5v-.9h.7s0-.1,0-.1v-1h1.2v1h0c0,.1.2.1.2.1h.8v.9h-.9s0,.1,0,.1v2.2c0,.3.2.5.4.5h.4v.8c0,0-.4.2-.6.2h0Z"/>
      <path class="st11" d="M178.2,281.2v1h-1.2v-1h1.2ZM178.2,283.1v4.6h-1.2v-4.6h1.2Z"/>
      <path class="st11" d="M179.9,283.6c.4-.4.9-.6,1.6-.6s1.1.2,1.5.6c.4.4.6.9.6,1.7v.4h-3.1s0,.1,0,.1h0c0,.7.4,1.1,1,1.1s.8-.3,1-.5h.1c0-.1.8.2.8.2,0,.1,0,.2,0,.2l-.2.2c-.3.3-.8.7-1.7.7s-1.3-.2-1.6-.5c-.4-.4-.6-.9-.6-1.9s.2-1.4.6-1.8ZM182.4,284.9h0v-.2c0-.3-.2-.9-.9-.9s-1,.5-1,.9h0c0,0,0,.2,0,.2h.1s1.6,0,1.6,0h.1Z"/>
      <path class="st11" d="M184.6,287h-.1c0-.2,0-.2,0-.3l.8-.4h0c.3.4.8.7,1.4.7s.8-.2.8-.5-.3-.5-.7-.5h-.8c-.7-.3-1.4-.6-1.4-1.4s.6-1.5,1.9-1.5,1.4.3,1.7.7h.1c0,.2,0,.2,0,.3l-.8.4h0c-.3-.4-.6-.5-1.1-.5s-.8.2-.8.5.3.4.8.5h.8c.6.3,1.3.6,1.3,1.5s-.6,1.5-2,1.5-1.6-.4-1.9-.8Z"/>
      <path class="st11" d="M193.9,282h-.6c-.2,0-.3.1-.3.3v.7h0c0,.1.2.1.2.1h.7v.9h-.9s0,.1,0,.1v3.6h-1.2v-3.6h0c0-.1-.2-.1-.2-.1h-.5v-.9h.7s0-.1,0-.1v-.6c0-.7.5-1.3,1.4-1.3h0c.3,0,.5,0,.6.1v.8Z"/>
      <path class="st11" d="M198.3,283.6c.3.4.5.8.5,1.8s-.2,1.5-.6,1.9c-.4.3-.9.5-1.6.5s-1.2-.2-1.6-.5c-.4-.3-.6-.8-.6-1.9s.2-1.5.5-1.8c.4-.4.9-.6,1.6-.6s1.3.2,1.6.6ZM197.3,286.6c.2-.2.3-.4.3-1.3s0-1-.3-1.2c-.1-.2-.4-.2-.7-.2s-.6,0-.7.2c-.2.2-.3.4-.3,1.2s0,1.1.3,1.3c.1.1.4.2.7.2s.5,0,.7-.2Z"/>
      <path class="st11" d="M201.2,284.8v2.9h-1.2v-4.6h1v.7h.1c.1-.3.5-.8,1-.8h.1c0,0,.2,0,.3.1v1.1h-.7c-.4,0-.7.2-.7.6Z"/>
      <path class="st11" d="M164.9,297v-6.2h4.4v1h-3.2s0,.1,0,.1v1.3h0c0,.1.2.1.2.1h2.6v1h-2.8s0,.1,0,.1v2.5h-1.2Z"/>
      <path class="st11" d="M171.7,290.8v6.2h-1.2v-6.2h1.2Z"/>
      <path class="st11" d="M178.6,290.8v6.2h-1.4l-2.1-3.5-.4-.9h0v.9s0,3.5,0,3.5h-1.2v-6.2h1.5l2,3.5.4.9h0v-.9s0-3.5,0-3.5h1.2Z"/>
      <path class="st11" d="M183.8,295.7h-.2s-2.2,0-2.2,0h-.2s0,.1,0,.1l-.4,1.1h-1.2l2.3-6.2h1.4l2.3,6.2h-1.3l-.4-1.1v-.2ZM181.9,294.7h1.6s0-.1,0-.1l-.6-1.6-.2-.7h0l-.2.7-.6,1.6v.2c0,0,0,0,0,0Z"/>
      <path class="st11" d="M191.8,290.8v6.2h-1.4l-2.1-3.5-.4-.9h0v.9s0,3.5,0,3.5h-1.2v-6.2h1.5l2,3.5.4.9h0v-.9s0-3.5,0-3.5h1.2Z"/>
      <path class="st11" d="M196.1,296c.6,0,1-.3,1.3-.6l.2-.2,1,.5c0,0,0,.1,0,.2h0c-.8.8-1.3,1.2-2.4,1.2s-1.5-.3-2-.7c-.6-.6-.8-1.3-.8-2.5s.2-1.9.8-2.4c.4-.5,1.1-.8,2.1-.8s1.9.6,2.3,1l.2.2c0,0,0,0,0,.2l-1,.5-.3-.3c-.3-.2-.6-.6-1.2-.6s-.9.2-1.2.5c-.3.3-.4.6-.4,1.6s.2,1.4.5,1.7c.3.3.6.4,1.2.4Z"/>
      <path class="st11" d="M201,290.8v6.2h-1.2v-6.2h1.2Z"/>
      <path class="st11" d="M206.2,295.7h-.2s-2.2,0-2.2,0h-.2s0,.1,0,.1l-.4,1.1h-1.3l2.3-6.2h1.4l2.3,6.2h-1.3l-.4-1.1v-.2ZM204.3,294.7h1.6s0-.1,0-.1l-.6-1.6-.2-.7h0l-.2.7-.6,1.6v.2c0,0,0,0,0,0Z"/>
      <path class="st11" d="M210.3,295.9h.2s2.6,0,2.6,0v1h-4v-6.2h1.2v5h0Z"/>
      <path class="st11" d="M169.6,306.2h-4.7v-6.2h4.6v1h-3.4s0,.1,0,.1v1.3h0c0,.1.2.1.2.1h2.9v1h-3s0,.1,0,.1v1.3h0c0,.1.2.1.2.1h3.4v1Z"/>
      <path class="st11" d="M176.3,301.9h0l-.2.8-1.1,2.8h-.9l-1.1-2.8-.2-.8h0v.8s0,3.6,0,3.6h-1.2v-6.2h1.6l1.5,3.7h0l1.5-3.7h1.6v6.2h-1.2v-4.4Z"/>
      <path class="st11" d="M182.4,304h-1.6s0,.1,0,.1v2.1h-1.2v-6.2h2.8c.8,0,1.3.2,1.7.6.3.3.5.6.5,1.4s-.2,1.1-.5,1.4c-.3.3-.8.5-1.6.5ZM182.4,301.1h-1.6s0,.1,0,.1v1.6h0c0,.1.2.1.2.1h1.4c.6,0,.9-.3.9-.9s-.3-.9-.9-.9Z"/>
      <path class="st11" d="M190.8,300.8c.5.5.8,1.1.8,2.3s-.3,1.9-.8,2.5c-.5.5-1.2.8-2.1.8s-1.6-.3-2.1-.8c-.6-.6-.8-1.3-.8-2.5s.2-1.8.8-2.3c.5-.5,1.2-.9,2.2-.9s1.7.4,2.2.9ZM189.8,304.8c.3-.3.5-.8.5-1.7s-.1-1.3-.5-1.6c-.3-.3-.7-.5-1.2-.5s-1,.2-1.2.5c-.3.3-.5.6-.5,1.6s.2,1.4.5,1.7c.3.3.7.4,1.2.4s.9-.2,1.2-.4Z"/>
      <path class="st11" d="M194.7,304.6h0v-.7c.1,0,1.1-3.8,1.1-3.8h1.5l.9,3.8v.7h.2v-.7c.1,0,1.1-3.8,1.1-3.8h1.3l-1.7,6.2h-1.4l-.9-3.8v-.7h-.2v.7c-.1,0-1.1,3.8-1.1,3.8h-1.4l-1.7-6.2h1.3l.9,3.8v.7Z"/>
      <path class="st11" d="M207,306.2h-4.7v-6.2h4.6v1h-3.4s0,.1,0,.1v1.3h0c0,.1.2.1.2.1h2.9v1h-3s0,.1,0,.1v1.3h0c0,.1.2.1.2.1h3.4v1Z"/>
      <path class="st11" d="M212.5,303.6l1.5,2.4c0,0,0,.1,0,.2h-1.4l-1.4-2.4h-1.2s0,.1,0,.1v2.3h-1.2v-6.2h2.8c.8,0,1.4.2,1.7.6.3.3.4.6.4,1.2s-.4,1.5-1.3,1.7ZM211.6,301.1h-1.6s0,.1,0,.1v1.4h0c0,.1.2.1.2.1h1.5c.6,0,.9-.3.9-.8s-.3-.8-.9-.8Z"/>
      <path class="st11" d="M220.5,301.9h0l-.2.8-1.1,2.8h-.9l-1.1-2.8-.2-.8h0v.8s0,3.6,0,3.6h-1.2v-6.2h1.6l1.5,3.7h0l1.5-3.7h1.6v6.2h-1.2v-4.4Z"/>
      <path class="st11" d="M228.5,306.2h-4.7v-6.2h4.6v1h-3.4s0,.1,0,.1v1.3h0c0,.1.2.1.2.1h2.9v1h-3s0,.1,0,.1v1.3h0c0,.1.2.1.2.1h3.4v1Z"/>
      <path class="st11" d="M235.4,300.1v6.2h-1.4l-2.1-3.5-.4-.9h0v.9s0,3.5,0,3.5h-1.2v-6.2h1.5l2,3.5.4.9h0v-.9s0-3.5,0-3.5h1.2Z"/>
      <path class="st11" d="M238.8,301.1h-.2s-1.8,0-1.8,0v-1h5.1v1h-2s0,.1,0,.1v5h-1.3v-5h0Z"/>
      <path class="st9" d="M164.8,315.5v-5.8h4.2v1h-3s0,.1,0,.1v1.2h0c0,.1.1.1.1.1h2.5v1h-2.7s0,.1,0,.1v2.3h-1.2Z"/>
      <path class="st9" d="M172.7,314.9l-.3.3c-.2.2-.5.4-1,.4s-.8-.1-1.1-.4c-.3-.3-.4-.7-.4-1.3v-2.7h1.1v2.9c0,.3.2.7.8.7s.8-.2.8-.7v-2.9h1.1v4.3h-1v-.6Z"/>
      <path class="st9" d="M176.1,311.7l.3-.3c.2-.2.5-.4,1-.4s.8.1,1.1.4c.3.3.4.7.4,1.3v2.7h-1.1v-2.9c0-.3-.2-.7-.8-.7s-.8.2-.8.7v2.9h-1.1v-4.3h1v.6Z"/>
      <path class="st9" d="M182.8,309.4h1.1v6.1h-1v-.5h-.1c-.3.4-.5.6-1.1.6s-.9-.1-1.2-.4c-.3-.3-.5-.8-.5-1.8s.2-1.5.5-1.8c.3-.3.7-.5,1.2-.5s.8.2,1,.4l.2.2v-2.2ZM181.3,314.5c.1.1.3.2.6.2.6,0,.9-.3.9-.8v-1.1c0-.5-.3-.8-.9-.8s-.5,0-.6.2c-.2.2-.2.5-.2,1.1s0,1,.3,1.2Z"/>
    </g>
  </g>
  <g>
    <text class="st1" transform="translate(88 241)"><tspan x="0" y="0">Certified 2025 – 2026</tspan></text>
    <text class="st3" transform="translate(132.6 260.7)"><tspan x="0" y="0">since October 2015</tspan></text>
  </g>
</svg>